<svg id="icon1" data-name="icon1" xmlns="http://www.w3.org/2000/svg" viewBox="0 0 8 10"><defs><style>.arrow-lo{fill:#14afbd;}</style></defs><title>icon</title><path class="arrow-lo" d="M7.54,4.28a.63.63,0,0,0-.21,0H6.76V2.17s0,0,0,0v-1s0-.07,0-.1A1.15,1.15,0,0,0,5.62,0H2.35A1.14,1.14,0,0,0,1.22,1a1.16,1.16,0,0,0,0,.12v1a1.14,1.14,0,0,0,0,.12v2H.54l-.06,0h0a.57.57,0,0,0-.24.11A.59.59,0,0,0,0,4.79a.6.6,0,0,0,.11.44L3.54,9.76a.59.59,0,0,0,.12.12A.57.57,0,0,0,4,10h.08a.58.58,0,0,0,.38-.23L7.86,5.25A.6.6,0,0,0,8,4.86.59.59,0,0,0,7.54,4.28Z"/></svg>
