<svg id="icon3" data-name="icon3" xmlns="http://www.w3.org/2000/svg" viewBox="0 0 8 10"><defs><style>.arrow-ho{fill:#14afbd;}</style></defs><title>icon</title><path class="arrow-ho" d="M7.88,4.77,4.46.24A.58.58,0,0,0,4.34.12.57.57,0,0,0,3.91,0a.57.57,0,0,0-.38.23L.14,4.75A.6.6,0,0,0,0,5.14a.59.59,0,0,0,.46.58.56.56,0,0,0,.21,0h.58V7.83s0,0,0,0v1s0,.07,0,.1A1.15,1.15,0,0,0,2.38,10H5.65A1.14,1.14,0,0,0,6.78,9a1.16,1.16,0,0,0,0-.12v-1a1.14,1.14,0,0,0,0-.12v-2h.69l.06,0h0a.57.57,0,0,0,.24-.11A.59.59,0,0,0,8,5.21.6.6,0,0,0,7.88,4.77Z"/></svg>
