<svg id="b-start" data-name="b-start" xmlns="http://www.w3.org/2000/svg" viewBox="0 0 558.03 95.38">><title>b-start</title><path d="M60,77.7l8.67-62.32H86.88V95.27H75.66V30.34l-9,61.08q-.61,3.85-3.88,3.85H56.38a3.41,3.41,0,0,1-2.4-.79,6,6,0,0,1-1.38-3.06l-9-60.4V95.27H32.42V15.38H50.77Z"/><path d="M97.48,95.27V15.38h12.24V95.27Z"/><path d="M120.43,95.27V15.38h15.3l11.83,59.38V15.38h10.91V95.27H147.76a4.78,4.78,0,0,1-3.42-1.3q-1.38-1.3-2.5-5.95l-10.4-50.65v57.9Z"/><path d="M169.68,95.27V15.38h12.24V95.27Z"/><path d="M192.63,95.27V15.38h15.3l11.83,59.38V15.38h10.91V95.27H220a4.78,4.78,0,0,1-3.42-1.3q-1.38-1.3-2.5-5.95l-10.4-50.65v57.9Z"/><path d="M251.27,75.32q0,4.19,1.73,5.84a6.12,6.12,0,0,0,4.39,1.64H262V63.43h-6.53V51.3h17.64v44H256.36q-8.36,0-12.85-5.21T239,75.21V36.57q0-11,4.54-16.09t13.61-5.1H270V27.73H258.1a6.19,6.19,0,0,0-5,2.15q-1.79,2.15-1.78,7.25Z"/><path d="M304.19,82.92h9.18q4.49,0,6.07-2.38a11.89,11.89,0,0,0,1.68-6.35,18.89,18.89,0,0,0-.92-6.63,10.7,10.7,0,0,0-4.28-5.27l-3.16-2.15a26.91,26.91,0,0,1-8.46-9.35q-3.16-5.72-3.16-15.24a24.49,24.49,0,0,1,1.53-9.07,17.33,17.33,0,0,1,4.18-6.35,16.06,16.06,0,0,1,6.22-3.63,25.54,25.54,0,0,1,7.75-1.13h8.77V27.73h-8.77a7.49,7.49,0,0,0-5.2,2q-2.24,2-2.24,6.12a24.63,24.63,0,0,0,.31,4.08,10.76,10.76,0,0,0,1.17,3.4,14.08,14.08,0,0,0,2.29,3.06,32.2,32.2,0,0,0,3.67,3.17l3.47,2.61q5.71,4.31,7.6,9.52a33,33,0,0,1,1.78,11.78,35,35,0,0,1-1.07,9,18.69,18.69,0,0,1-3.37,6.91,14.59,14.59,0,0,1-6,4.42,24.06,24.06,0,0,1-9.13,1.53h-9.89Z"/><path d="M350.19,95.27V27.17H337.95V15.38h36.1V27.17H361.81v68.1Z"/><path d="M414.84,95.27H402.3L400,79.86H387.51l-2.24,15.41H372.72l13.16-79.89h15.71Zm-25.9-26.63h9.48l-4.89-36.37Z"/><path d="M443,71.47q0-4.08-1.53-5.78a5.86,5.86,0,0,0-4.59-1.7H433.2V95.27H421V15.38h16.72q8.46,0,13.16,5t4.69,14.67v9.18q0,10.31-5.41,15.41a8.9,8.9,0,0,1,3.93,4.53,22.36,22.36,0,0,1,1.17,8v23H443ZM433.2,51.64h4.18A5.81,5.81,0,0,0,441.61,50q1.68-1.64,1.68-5.61V35q0-4.19-1.68-5.72a6.06,6.06,0,0,0-4.23-1.53H433.2Z"/><path d="M475.32,95.27V27.17H463.08V15.38h36.1V27.17H486.94v68.1Z"/><path d="M543.46,70.66q-2.1-1.87-7.09-2.69a13,13,0,0,0,5.65-2.7A5.56,5.56,0,0,0,543.9,61a5.91,5.91,0,0,0-2.37-4.78,9.89,9.89,0,0,0-6.28-1.91V49.92h-3.17v4.41H528V49.92h-3.17v4.41h-7.48v1.8h2.27a2.69,2.69,0,0,1,1.49.31,1,1,0,0,1,.44.81V79.36a2,2,0,0,1-.47,1.33,1.31,1.31,0,0,1-1,.4h-2.68v1.8h7.48v4.38H528V82.9h4.06v4.38h3.17V82.86a17,17,0,0,0,5.09-.94,8.79,8.79,0,0,0,3.72-2.26,6.49,6.49,0,0,0,1.5-4.29A6,6,0,0,0,543.46,70.66ZM530.69,56.15q3.92,0,5.32,1.18a4.91,4.91,0,0,1,1.4,4q0,3.2-1.46,4.59t-4.85,1.39h-3.29V57.67a1.32,1.32,0,0,1,.5-1.19A5.26,5.26,0,0,1,530.69,56.15Zm6.6,23.47a6.13,6.13,0,0,1-4.37,1.49h-3.78a1.19,1.19,0,0,1-1-.43,1.89,1.89,0,0,1-.35-1.23V69h4.43a6.94,6.94,0,0,1,4.93,1.59,6,6,0,0,1,1.7,4.61A5.7,5.7,0,0,1,537.29,79.61Z"/><path d="M530.7,95.38c-15.07,0-27.33-12-27.33-26.78s12.26-26.78,27.33-26.78S558,53.84,558,68.6,545.77,95.38,530.7,95.38Zm0-49.41A22.64,22.64,0,1,0,553.8,68.6,22.9,22.9,0,0,0,530.7,46Z"/><path d="M15.7,30.76A15.56,15.56,0,0,1,0,15.38,15.56,15.56,0,0,1,15.7,0,15.56,15.56,0,0,1,31.4,15.38,15.56,15.56,0,0,1,15.7,30.76Zm0-29.24A14,14,0,0,0,1.55,15.38,14,14,0,0,0,15.7,29.24,14,14,0,0,0,29.85,15.38,14,14,0,0,0,15.7,1.52Z"/><path d="M18.16,13.88a3.36,3.36,0,0,0,.8-2.52,2.69,2.69,0,0,0-.77-2.17,4.74,4.74,0,0,0-2.92-.64,2.89,2.89,0,0,0-1.3.18.72.72,0,0,0-.28.66v5.26H15.5A3.8,3.8,0,0,0,18.16,13.88Z"/><path d="M16.13,15.63H13.7v5.7a1,1,0,0,0,.19.68.65.65,0,0,0,.53.23H16.5a3.36,3.36,0,0,0,2.4-.82A3.13,3.13,0,0,0,19.76,19a3.3,3.3,0,0,0-.93-2.53A3.81,3.81,0,0,0,16.13,15.63Z"/><path d="M15.7,3.44A12.07,12.07,0,0,0,3.51,15.38,12.07,12.07,0,0,0,15.7,27.32,12.07,12.07,0,0,0,27.89,15.38,12.07,12.07,0,0,0,15.7,3.44Zm6.91,18a4.82,4.82,0,0,1-2,1.24,9.3,9.3,0,0,1-2.79.52v2.43H16v-2.4H13.81v2.4H12.07v-2.4H8v-1H9.44A.72.72,0,0,0,10,22a1.1,1.1,0,0,0,.26-.73V9.15A.52.52,0,0,0,10,8.71a1.48,1.48,0,0,0-.82-.17H8v-1h4.1V5.14h1.74V7.55H16V5.14h1.74V7.56a5.43,5.43,0,0,1,3.44,1,3.24,3.24,0,0,1,1.3,2.62,3,3,0,0,1-1,2.33A7.14,7.14,0,0,1,18.39,15a7.78,7.78,0,0,1,3.89,1.47,3.31,3.31,0,0,1,1.15,2.58A3.56,3.56,0,0,1,22.61,21.44Z"/></svg>
