<svg id="레이어_1" data-name="레이어 1" xmlns="http://www.w3.org/2000/svg" viewBox="0 0 132.82 100"><title>패턴</title><path d="M117.12,100a15.38,15.38,0,1,1,15.7-15.38A15.56,15.56,0,0,1,117.12,100Zm0-29.24a13.87,13.87,0,1,0,14.15,13.86A14,14,0,0,0,117.12,70.76Z"/><path d="M119.59,83.12a3.36,3.36,0,0,0,.8-2.52,2.69,2.69,0,0,0-.77-2.17,4.74,4.74,0,0,0-2.92-.64,2.89,2.89,0,0,0-1.3.18.72.72,0,0,0-.28.66v5.26h1.81A3.8,3.8,0,0,0,119.59,83.12Z"/><path d="M117.55,84.86h-2.43v5.7a1,1,0,0,0,.19.68.65.65,0,0,0,.53.23h2.08a3.36,3.36,0,0,0,2.4-.82,3.13,3.13,0,0,0,.87-2.39,3.3,3.3,0,0,0-.93-2.53A3.81,3.81,0,0,0,117.55,84.86Z"/><path d="M117.12,72.68a11.94,11.94,0,1,0,12.19,11.94A12.07,12.07,0,0,0,117.12,72.68Zm6.91,18a4.82,4.82,0,0,1-2,1.24,9.3,9.3,0,0,1-2.79.52v2.43h-1.74v-2.4h-2.22v2.4H113.5v-2.4h-4.1v-1h1.47a.72.72,0,0,0,.57-.22,1.1,1.1,0,0,0,.26-.73V78.39a.52.52,0,0,0-.24-.44,1.48,1.48,0,0,0-.82-.17h-1.24v-1h4.1V74.38h1.74v2.42h2.22V74.38h1.74V76.8a5.43,5.43,0,0,1,3.44,1,3.24,3.24,0,0,1,1.3,2.62,3,3,0,0,1-1,2.33,7.14,7.14,0,0,1-3.1,1.48,7.78,7.78,0,0,1,3.89,1.47,3.31,3.31,0,0,1,1.15,2.58A3.56,3.56,0,0,1,124,90.68Z"/><path d="M74.39,53.5q-3.9-3.48-13.15-5,7-1.79,10.48-5a10.31,10.31,0,0,0,3.49-7.88,11,11,0,0,0-4.39-8.86c-2.85-2.31-6.74-3.48-11.65-3.54V15H53.28v8.18H45.75V15H39.86v8.18H26v3.33h4.2a5,5,0,0,1,2.76.57,1.76,1.76,0,0,1,.82,1.5v41a3.71,3.71,0,0,1-.88,2.47,2.44,2.44,0,0,1-1.94.75H26V76.2H39.86v8.13h5.89V76.2h7.52v8.13h5.89V76.13a31.48,31.48,0,0,0,9.44-1.75q4.92-1.83,6.89-4.2a12,12,0,0,0,2.78-8A11.19,11.19,0,0,0,74.39,53.5ZM50.7,26.57q7.28,0,9.88,2.18t2.6,7.33q0,5.94-2.71,8.51t-9,2.57H45.36V29.4a2.44,2.44,0,0,1,.93-2.22Q47.23,26.57,50.7,26.57ZM62.94,70.11q-2.94,2.76-8.1,2.76h-7A2.22,2.22,0,0,1,46,72.08a3.5,3.5,0,0,1-.66-2.29V50.51h8.23q6,0,9.15,3T65.88,62Q65.88,67.35,62.94,70.11Z"/><path d="M50.71,99.36C22.75,99.36,0,77.08,0,49.68S22.75,0,50.71,0s50.71,22.29,50.71,49.68S78.67,99.36,50.71,99.36Zm0-91.67c-23.63,0-42.86,18.84-42.86,42s19.23,42,42.86,42,42.86-18.84,42.86-42S74.34,7.69,50.71,7.69Z"/></svg>