<svg id="레이어_1" data-name="레이어 1" xmlns="http://www.w3.org/2000/svg" viewBox="0 0 406.79 100"><defs><style>.cls-1{fill:#d3be42;}</style></defs><title>패턴</title><path class="cls-1" d="M191.9,47q-.28-1.76-.55-3.35a28.48,28.48,0,0,0-.71-3.06,19.71,19.71,0,0,0-1.05-2.8A13.76,13.76,0,0,0,188,35.22a3.59,3.59,0,0,0-.81-.8,9.81,9.81,0,0,1-.86-.6,1.64,1.64,0,0,0-.6-.66,4.87,4.87,0,0,0-1.17-.65,5.73,5.73,0,0,0-1.3-.35,1.3,1.3,0,0,0-1,.17.83.83,0,0,1-.34.16.82.82,0,0,0-.34.16,16.51,16.51,0,0,0-1.92,1.18,4.92,4.92,0,0,0-1.57,2q-.1.2-.34.73l-.52,1.16L176.69,39q-.28.63-.39.9a1.8,1.8,0,0,0-.15.3,1.15,1.15,0,0,0-.11.3q-.1.27-.32,1l-.46,1.5q-.24.8-.48,1.53t-.34,1a17.45,17.45,0,0,0-.81,4.15q-.17,2.22-.24,4.3-.06,1.68-.06,3.84t.21,4.35a31.83,31.83,0,0,0,.67,4.17,11,11,0,0,0,1.32,3.35l.5.76.75,1.14q.39.59.75,1.1l.5.72a3,3,0,0,0,1.61,1,10,10,0,0,0,1.78.23q.76,0,1.29,0a4,4,0,0,0,1.3-.33,8.37,8.37,0,0,0,.69-.55l1.05-.87,1.05-.84a4.07,4.07,0,0,0,.64-.58,8.19,8.19,0,0,0,.65-.75,3.52,3.52,0,0,0,.6-1,4.17,4.17,0,0,0,.14-.5,1.63,1.63,0,0,1,.13-.43q1.22-3.53,2.24-7a30.15,30.15,0,0,0,1.16-7.47,33,33,0,0,0-.07-3.57Q192.17,48.91,191.9,47ZM187.77,60.7q-1,3.34-2.13,6.7a6.68,6.68,0,0,0-.29.91l-.06.07a1.76,1.76,0,0,0-.22.3l0,0a3.54,3.54,0,0,0-.54.5l-.65.53c-.07-.48-.18-.92-.23-1.41-.13-1.35-.2-2.68-.19-4s0-2.64.05-3.71q.07-2,.24-4.15a14.16,14.16,0,0,1,.57-3.12c.08-.21.22-.61.42-1.21l1.26-4c.06-.1,1.33-3,1.75-3.91l0,.1c.18,1,.36,2.14.54,3.24s.29,2.33.38,3.42a30,30,0,0,1,.06,3.19A26.77,26.77,0,0,1,187.77,60.7Z"/><path class="cls-1" d="M263.5,48.69a23.86,23.86,0,0,0-.93-3.77,20.21,20.21,0,0,0-1.67-3.67l-.36-.54a2.26,2.26,0,0,0-.36-.47l-.57-.47a4.35,4.35,0,0,1-.57-.54q-1.24-1.28-2.31-2.26a10.61,10.61,0,0,0-2.65-1.72l-.36,0a6.48,6.48,0,0,0-.69,0h-.72c-.22,0-.35,0-.38-.07a2.08,2.08,0,0,1-.43-.3l-.48-.37-1.34.74q-.24.13-.24.27v.74q0,.13,0,.77t.07,1.38q0,.74.1,1.38t0,.77q.29,8.42.26,16.84t0,16.84a.73.73,0,0,0,.43-.13,5.31,5.31,0,0,1,1.69-.47,7.91,7.91,0,0,0,1.74-.4,16.39,16.39,0,0,0,5.65-4.07,18.57,18.57,0,0,0,3.88-7.37c0-.13.09-.35.17-.64s.15-.61.21-.94l.17-.88a3.27,3.27,0,0,0,.07-.5s0-.25,0-.61,0-.63,0-.81q0-2.42-.1-4.58A35.15,35.15,0,0,0,263.5,48.69Zm-3.13,9.91v0l-.17.92c0,.08-.05.23-.09.4,0-3.61-.08-7.22-.18-10.8,0,.06,0,.12,0,.18a31.6,31.6,0,0,1,.36,3.67q.09,2.08.09,4.42S260.37,58.6,260.36,58.6Z"/><path class="cls-1" d="M281.5,49.19a52.87,52.87,0,0,0-1.74-7.31,38.81,38.81,0,0,0-2.8-6.65,26,26,0,0,0-4-5.54,18.45,18.45,0,0,0-3.89-3,25.23,25.23,0,0,0-2.68-3.46,18.23,18.23,0,0,0-5.46-4s-.61-.33-1-.51l-.93-.44a8.72,8.72,0,0,0-.9-.35,32.28,32.28,0,0,0-7.46-1.63c-2.29-.21-4.63-.32-7-.32H241a3.63,3.63,0,0,0-1.53.34c-.29.14-.58.29-.84.45a6.72,6.72,0,0,0-1.21.91,3.58,3.58,0,0,0-1.11,2.13c0,.26-.09.81-.17,1.69S236,23,236,23.26V26c-.17-.14-.34-.31-.51-.43l-.15-.1-1.86-2.09-1.24-1.27c-.49-.5-1-1-1.53-1.51a20.24,20.24,0,0,0-1.8-1.53,16.1,16.1,0,0,0-1.75-1.17,3.45,3.45,0,0,0-.59-.27l-1-.48a3.75,3.75,0,0,0-.44-.26c-1-.5-2-1-3-1.59a9.19,9.19,0,0,0-4.54-1.2c-.3,0-.61,0-.93,0a12.18,12.18,0,0,0-4.51,1.36q-1.5.8-3,1.76a3.86,3.86,0,0,0-.74.5,3.8,3.8,0,0,0-.59.5,23.42,23.42,0,0,0-4.15,6.08c-.51,1.07-1,2.18-1.39,3.31-.22-.23-.42-.5-.64-.71a16,16,0,0,0-1.59-1.4,3.25,3.25,0,0,0-.54-.34l-.91-.61a3.51,3.51,0,0,0-.28-.22l-.36-.48c-.42-.57-.86-1.13-1.32-1.71a21.43,21.43,0,0,0-1.58-1.75,16,16,0,0,0-1.59-1.4,3.25,3.25,0,0,0-.54-.34l-.91-.61a3.7,3.7,0,0,0-.4-.31c-.94-.63-1.88-1.29-2.81-2A9.11,9.11,0,0,0,183.57,14h-.43a12,12,0,0,0-4.23.76c-1.09.41-2.19.87-3.29,1.39a4.61,4.61,0,0,0-.67.34,3.45,3.45,0,0,0-.69.43,23.6,23.6,0,0,0-4.92,5.48,38.64,38.64,0,0,0-2.25,4,3.29,3.29,0,0,0-.08-.33,6.5,6.5,0,0,0-.64-1.06l-.47-.57a8.37,8.37,0,0,0-3-2.11,11.43,11.43,0,0,0-2.2-.61c0-.44,0-.73,0-.85a3.56,3.56,0,0,0-.3-1.31,6.5,6.5,0,0,0-.64-1.06l-.47-.57a8.37,8.37,0,0,0-3-2.11,11.53,11.53,0,0,0-2.72-.75,12.59,12.59,0,0,0-1.91-.15l-.76,0-1.81.11a19.12,19.12,0,0,0-8.86,2.74,18.24,18.24,0,0,0-4.39,3.89,25.88,25.88,0,0,0-2.67,3.77c-.17.27-.42.72-.75,1.33l-.43.79-1.38,2.53c-.35.62-.57,1-.68,1.27,0,0-.23.49-.39.85l-.08.23a3.78,3.78,0,0,0-.31.62c-.06.17-.19.53-.37,1.09l-.92,3c-.1.32-.3.88-.34,1a23.12,23.12,0,0,0-.7,3.38l-.39,3c0,.22-.08.49-.12.82s0,.44-.05.61c-.16,1.09-.3,2.16-.43,3.23a26,26,0,0,0-.15,4l.26,4.3c.08,1.42.2,2.72.34,3.89s.31,2.35.52,3.45.45,2.22.74,3.38.64,2.39,1,3.58a22.4,22.4,0,0,0,2.67,6.15,20.47,20.47,0,0,0,3.81,4.38,26.18,26.18,0,0,0,2.44,2c.18.14.34.22.51.34a20.45,20.45,0,0,0,3.62,4.12,26.31,26.31,0,0,0,2.44,2,10.43,10.43,0,0,0,3,1.68,12.84,12.84,0,0,0,3.25.83,7.81,7.81,0,0,1,1.31.28l.17.09a4.31,4.31,0,0,0,1.68.54l.9.24a3.68,3.68,0,0,0,2.5,1,3.62,3.62,0,0,0,.89-.11,7,7,0,0,0,1-.37,7.84,7.84,0,0,0,.87-.21l.62-.19a5.17,5.17,0,0,0,.55-.21l.36-.1a5.24,5.24,0,0,0,1.64-.67h0l3.47-1.93a4.63,4.63,0,0,0,2.09-1.54,23.94,23.94,0,0,0,2-2.7,18.54,18.54,0,0,0,1.24-2.54l.16.1.63.37h0c.28.44.57.89.86,1.31l.78,1.11c.26.37.48.65.64.84a5.67,5.67,0,0,0,.71.71c.24.22.53.45.86.7l.74.56c.35.26.63.46.86.6l.48.3,1.63.94a3.59,3.59,0,0,0,.37.25c.91.54,1.81,1,2.7,1.43A10.09,10.09,0,0,0,187,95h.7a20.36,20.36,0,0,0,4.75-.57,11.22,11.22,0,0,0,5.76-3.69,9.25,9.25,0,0,0,.78-.93l2-2.54c.41-.54.71-1,.78-1.09a50.44,50.44,0,0,0,4-6.33c.19-.35.32-.74.49-1.1l.21.36a5.54,5.54,0,0,0,.66,1l.58.7c.33.41.68.81,1,1.2l.92,1c.29.3.53.54.71.7a6,6,0,0,0,.82.63c.28.19.59.38.95.58l.72.41.18.31a5.54,5.54,0,0,0,.66,1l.58.7c.33.41.68.81,1,1.2l.92,1c.29.3.53.54.71.7a5.92,5.92,0,0,0,.82.63c.28.19.59.38.95.58l.81.46a7.32,7.32,0,0,0,.71.37h0c.12.07.35.18.77.36l1.75.72.37.18q1.45.61,2.86,1.05a10,10,0,0,0,3,.44q.53,0,1.07-.05a20.28,20.28,0,0,0,5.33-1.27,11.2,11.2,0,0,0,5.21-4.41,8.7,8.7,0,0,0,.67-1.05l.19-.32.21,0c.2,0,.49,0,1.18-.07,0,.58,0,1.15.07,1.74a5.17,5.17,0,0,0,2.2,4,5.71,5.71,0,0,0,3.13.84c.21,0,.49,0,1.2-.07.27,0,.59,0,1,0s2.65.06,3.25.06c.87,0,1.8,0,2.79-.07a35.73,35.73,0,0,0,5.54-.71,23,23,0,0,0,12-6.59,24.83,24.83,0,0,0,4.73-7.15,33.48,33.48,0,0,0,2-6.27A63.82,63.82,0,0,0,281.88,66a68.72,68.72,0,0,0,.36-8.39A60.38,60.38,0,0,0,281.5,49.19ZM158.58,39.64a5.4,5.4,0,0,1,.88.08,12.44,12.44,0,0,0,2.12.18l.7,0,.33,0c-.24,1-.47,2-.67,3,0,.18-.13.52-.24,1.06s-.16.88-.24,1.37l-.18,1.34c0,.25,0,.45-.06.63l-6.3.38c-.1,0-.48,0-1.13.15l-1.51.22c-.63.08-1.25.18-1.9.29l-1.24.23-.46.09c.06-.45.11-.93.18-1.35a6.51,6.51,0,0,1,.52-1.92,3.54,3.54,0,0,0,.39-.57,5.41,5.41,0,0,0,.63-.86A7.14,7.14,0,0,1,151.83,42a8.21,8.21,0,0,1,1.83-1.26A9.31,9.31,0,0,1,155.8,40,16.33,16.33,0,0,1,158.58,39.64Zm4.51,32.74a20.66,20.66,0,0,1-.94,3.73A15.68,15.68,0,0,1,160.76,79,20.72,20.72,0,0,1,159,81.47q0,.14-.53.34a1.8,1.8,0,0,0-.53.27l-.81.45-1.09.61-1,.57-.62.34a1.48,1.48,0,0,1-.56.2l-.8.22a1.19,1.19,0,0,1-.35.16l-.54.17a5.15,5.15,0,0,1-.57.14l-.33.05a7,7,0,0,1-.81.35c-.11,0-.31-.2-.59-.67a2.2,2.2,0,0,1-.55-.07l-.75-.19-.73-.19a1.92,1.92,0,0,0-.48-.07,1.39,1.39,0,0,1-.34-.15l-.39-.21a11.05,11.05,0,0,0-2.32-.53,9.06,9.06,0,0,1-2.33-.6,7.47,7.47,0,0,1-2.17-1.22,23,23,0,0,1-2.11-1.76,17.31,17.31,0,0,1-3.28-3.75,18.7,18.7,0,0,1-2.22-5.16q-.59-1.85-1-3.48t-.69-3.16q-.28-1.53-.48-3.21t-.32-3.69l-.26-4.3a22.11,22.11,0,0,1,.13-3.35q.19-1.6.43-3.23s0-.26.06-.64a5.87,5.87,0,0,1,.1-.71l.39-3A19.55,19.55,0,0,1,131,39.1q.08-.21.3-.9t.46-1.48q.24-.79.46-1.48t.3-.9a7.27,7.27,0,0,0,.34-.73,7.29,7.29,0,0,1,.34-.73q.13-.28.56-1l.92-1.68.92-1.71q.43-.8.65-1.15c.12-.21.25-.39.38-.59a18.46,18.46,0,0,1,4.39-5.08,12.79,12.79,0,0,1,1.1-.79,15.5,15.5,0,0,1,7.22-2.22l1.81-.11a9.16,9.16,0,0,1,1.92.09,8.13,8.13,0,0,1,1.89.53,4.78,4.78,0,0,1,1.7,1.21l.31.39a1.1,1.1,0,0,1,.16.26q0,.13,0,.64a4.81,4.81,0,0,1-.09.85q-.06.54-.25,1.74c-.1.63-.22,1.27-.34,1.92,0,.17-.06.33-.09.5q-.24,1.23-.47,2.19t-.42,1c-.19,0-.39,0-.58,0a8.68,8.68,0,0,1-1.43-.08,8.51,8.51,0,0,0-2-.12,20.43,20.43,0,0,0-3.06.42,12.78,12.78,0,0,0-2.95,1,11.61,11.61,0,0,0-2.66,1.81,10.61,10.61,0,0,0-2.19,2.86,3.43,3.43,0,0,1-.27.32,2.09,2.09,0,0,0-.35.53,7.77,7.77,0,0,0-1.31,3.65,54.83,54.83,0,0,0-.59,5.7q-.17,3.11-.1,6.25t.2,5.28A33.71,33.71,0,0,0,139.77,64a26.21,26.21,0,0,0,1.63,3.65,9,9,0,0,0,3.72,3.79,8,8,0,0,0,5.08.27l.76,0,.31-.09.56-.17.56-.17a1.76,1.76,0,0,1,.35-.09,2,2,0,0,0,.84-.39,6.62,6.62,0,0,0,1.07-.91,5.94,5.94,0,0,0,.9-1.24,2.49,2.49,0,0,0,.35-1.37,3,3,0,0,0-.06-.57s0,0,0,.07a.42.42,0,0,1,0,.14s0-.08,0-.3,0-.65,0-1.28,0-1.57-.08-2.83a2.83,2.83,0,0,1,.15-1.12,2.64,2.64,0,0,0,.15-1.05q0-.74-.47-.71a.86.86,0,0,0-.54.2.79.79,0,0,1-.49.2L154,60l-.55,0q-.46,0-1,0t-.93,0l-.53,0-.81.08a2.42,2.42,0,0,1-.81,0,.57.57,0,0,1-.22-.12.56.56,0,0,0-.22-.12l-.44-.21a1.28,1.28,0,0,0-.53-.14q0-.2-.07-.7t-.14-1.1q-.08-.6-.14-1.1t-.07-.7s0-.25-.06-.6-.06-.63-.07-.81,0-.33,0-.71,0-.62,0-.71a1.1,1.1,0,0,1,.23-.22.71.71,0,0,1,.23-.15l.28-.08a3.37,3.37,0,0,1,.52-.13,5.1,5.1,0,0,0,.57-.14,2.07,2.07,0,0,1,.42-.09l1.35-.25q.87-.15,1.75-.27l1.56-.23.78-.11,1.5-.09L158.9,51l2.31-.14,1.52-.09.23,2.15.59,14.54A40.85,40.85,0,0,1,163.08,72.38Zm-14.69-9.07a3.26,3.26,0,0,0,.73.18,4.3,4.3,0,0,0,.53,0,9.58,9.58,0,0,0,1-.06h.06c.06.55.26,2,.26,2l.06.62a3.5,3.5,0,0,0,.58,1.59l-1.24.38-.37,0a3.5,3.5,0,0,0-.54.07h-.08a36.72,36.72,0,0,1-1-4.48C148.4,63.59,148.4,63.43,148.39,63.31Zm52.14-10.62a22.48,22.48,0,0,1-.32,3.26l-.56,3-.23,1.1q-.17.84-.37,1.77l-.37,1.74q-.17.8-.22,1A25.91,25.91,0,0,1,196,71.68a46.37,46.37,0,0,1-3.7,5.87q-.25.4-.75,1.05t-1,1.31l-.95,1.21a4.29,4.29,0,0,1-.52.62,7.74,7.74,0,0,1-4,2.69,16.49,16.49,0,0,1-4.48.46,6.53,6.53,0,0,1-2.56-.59q-1.17-.54-2.39-1.26a5.53,5.53,0,0,0-.56-.36l-.75-.43-.68-.39-.4-.25q-.23-.14-.61-.42l-.74-.56q-.37-.28-.65-.53a2.61,2.61,0,0,1-.32-.31,5.91,5.91,0,0,1-.48-.62l-.75-1.07q-.41-.59-.77-1.17l-.54-.86a4,4,0,0,1-.2-.44l-.38-.89-.42-1q-.2-.48-.33-.75a17,17,0,0,1-.75-2.65q-.26-1.36-.5-2.71a15.72,15.72,0,0,0-.51-2.48,15.33,15.33,0,0,1-.51-2.61,46,46,0,0,1-.27-5.47q0-2.83.11-5.52l0-1q0-.61.06-1.18c0-.38,0-.73.06-1l0-.54q0-.2.07-.77T165,45.8q.09-.64.21-1.21t.17-.77c.41-2,.9-4,1.4-5.91.1-.38.17-.76.27-1.14s.21-.69.31-1a51.43,51.43,0,0,1,1.91-5.58,35.84,35.84,0,0,1,3.06-5.83,19.81,19.81,0,0,1,4.16-4.64.7.7,0,0,0,.24-.13.71.71,0,0,1,.24-.13q1.6-.75,3.17-1.34a8.47,8.47,0,0,1,3.29-.53,5.6,5.6,0,0,1,3.23,1.15q1.47,1.09,3,2.09a1.4,1.4,0,0,0,.3.25l.54.35q.28.18.51.35a.77.77,0,0,0,.33.18A12.69,12.69,0,0,1,192.54,23a17.55,17.55,0,0,1,1.31,1.46q.64.8,1.23,1.59l1,1.42.43.62q.3.41.59.86l.52.79.27.41a5.4,5.4,0,0,1,.33.82,5.39,5.39,0,0,0,.33.82,29,29,0,0,1,1.19,4.93q.45,2.81.66,5.75t.21,5.67Q200.69,50.88,200.53,52.69Zm38,4q0,.27-.08,1.12t-.13,1.81l-.14,1.77q-.06.82-.09,1a25.94,25.94,0,0,1-1.5,7.32A46.35,46.35,0,0,1,233.73,76q-.2.43-.61,1.14t-.84,1.44q-.43.72-.78,1.33a4.25,4.25,0,0,1-.43.69,7.74,7.74,0,0,1-3.63,3.2,16.48,16.48,0,0,1-4.38,1,6.53,6.53,0,0,1-2.61-.25q-1.24-.38-2.54-.93a5.55,5.55,0,0,0-.6-.28l-.8-.33-.72-.3-.43-.19c-.17-.07-.39-.19-.66-.34l-.81-.46q-.41-.23-.71-.44a2.55,2.55,0,0,1-.36-.27,5.84,5.84,0,0,1-.56-.55l-.89-1q-.48-.53-.92-1.06l-.65-.78a4.07,4.07,0,0,1-.26-.41l-.49-.83-.55-.93q-.26-.45-.43-.7A17,17,0,0,1,207,72.33q-.44-1.31-.86-2.62a15.78,15.78,0,0,0-.84-2.39,15.34,15.34,0,0,1-.85-2.52,46,46,0,0,1-1-5.38q-.35-2.81-.62-5.49l-.1-1q-.06-.6-.09-1.18t-.08-1l-.05-.54q0-.2,0-.78t0-1.22q0-.64,0-1.22c0-.39,0-.65.07-.78q.26-3.61.72-7.21a51.87,51.87,0,0,1,1.33-6.87,35.84,35.84,0,0,1,2.26-6.18,19.84,19.84,0,0,1,3.51-5.15.71.71,0,0,0,.22-.16.71.71,0,0,1,.22-.16q1.49-1,3-1.75a8.47,8.47,0,0,1,3.19-1,5.6,5.6,0,0,1,3.35.72q1.6.89,3.21,1.68a1.4,1.4,0,0,0,.33.2l.58.28.56.28a.76.76,0,0,0,.35.13,12.66,12.66,0,0,1,1.36.91,17.43,17.43,0,0,1,1.49,1.27q.74.7,1.43,1.41l1.23,1.27.51.56q.35.37.7.78l.62.72.32.37a5.41,5.41,0,0,1,.44.77,5.35,5.35,0,0,0,.43.77,29,29,0,0,1,1.83,4.72q.82,2.73,1.42,5.61t1,5.59q.36,2.7.45,4.52a22.5,22.5,0,0,1,.11,3.27Q238.64,55,238.56,56.68Zm33.18,2.48a59.47,59.47,0,0,1-1.17,7.14,29.48,29.48,0,0,1-1.81,5.59,21.18,21.18,0,0,1-4,6.13,19.42,19.42,0,0,1-10.11,5.59,32,32,0,0,1-5,.64q-2.34.1-4.22,0t-2.88,0l-.43,0-.52,0a2.24,2.24,0,0,1-1.19-.27q-.43-.27-.57-1.41-.29-6.53-.48-13t-.19-13V47.51q0-.27,0-1.31t.07-2.22q0-1.18.07-2.19t0-1.28q0-.67,0-1.08v-.77q0-.37,0-.77a6.12,6.12,0,0,1,.17-1V23.26q0-.34.1-1.48t.14-1.48a3.24,3.24,0,0,1,.57-.44q.29-.17.57-.3h2.76q3.34,0,6.63.3A28.41,28.41,0,0,1,257,21.31a4.94,4.94,0,0,1,.62.24l.79.37q.41.2.69.37a1.39,1.39,0,0,0,.33.17,14.64,14.64,0,0,1,4.39,3.2,22.32,22.32,0,0,1,3.43,4.78,34.61,34.61,0,0,1,2.53,6,47.82,47.82,0,0,1,1.62,6.8,55.83,55.83,0,0,1,.69,7.95A65.08,65.08,0,0,1,271.74,59.16Z"/><path class="cls-1" d="M230.17,49.39q-.36-1.72-.88-3.57t-1-3.25a28.47,28.47,0,0,0-1.11-2.94A19.6,19.6,0,0,0,225.78,37a13.75,13.75,0,0,0-1.91-2.35A3.57,3.57,0,0,0,223,34a9.87,9.87,0,0,1-.93-.48,1.63,1.63,0,0,0-.68-.58,4.87,4.87,0,0,0-1.25-.49,5.72,5.72,0,0,0-1.33-.17,1.3,1.3,0,0,0-1,.3.84.84,0,0,1-.32.2.82.82,0,0,0-.32.2,16.6,16.6,0,0,0-1.75,1.43,4.92,4.92,0,0,0-1.29,2.19q-.07.21-.24.77l-.36,1.22-.4,1.33c-.13.44-.22.76-.27.94a1.83,1.83,0,0,0-.11.32,1.14,1.14,0,0,0-.07.31q-.07.28-.19,1L212.27,44q-.13.83-.27,1.58t-.21,1a17.46,17.46,0,0,0-.25,4.22q.12,2.22.33,4.3.17,1.68.45,3.81t.78,4.29a31.94,31.94,0,0,0,1.22,4,11,11,0,0,0,1.75,3.14l.59.69.89,1q.46.53.89,1l.59.65a3,3,0,0,0,1.73.74,10,10,0,0,0,1.8,0q.76-.08,1.28-.16a4,4,0,0,0,1.24-.5,8.44,8.44,0,0,0,.61-.64q.43-.48.93-1l.93-1a4.08,4.08,0,0,0,.56-.66,8.18,8.18,0,0,0,.54-.83,3.51,3.51,0,0,0,.47-1,4.08,4.08,0,0,0,.07-.51,1.63,1.63,0,0,1,.08-.45q.74-3.66,1.29-7.27a30.15,30.15,0,0,0,.16-7.56A33,33,0,0,0,230.17,49.39ZM227,59.94q-.52,3.45-1.23,6.94a6.46,6.46,0,0,0-.16.94s-.3.49-.45.72L224,69.74l-.45.49c-.13-.44-.29-.84-.39-1.31q-.46-2-.72-3.95T222,61.28c-.13-1.33-.23-2.72-.32-4.15a14.11,14.11,0,0,1,.15-3.16c.06-.22.14-.64.25-1.23l.54-3.2c.06-.35.16-.86.18-.92s1.33-4.48,1.33-4.48a1.73,1.73,0,0,1,.3-.63l.29-.24c0,.13.1.24.14.37.32,1,.64,2.07,1,3.16s.6,2.26.82,3.33a29.06,29.06,0,0,1,.48,3.15A26.8,26.8,0,0,1,227,59.94Z"/><path class="cls-1" d="M297.24,22.66a35.34,35.34,0,0,1,2.47-10.34,35.11,35.11,0,0,1,4.84-9.46,35,35,0,0,1-2.47,10.34A35.45,35.45,0,0,1,297.24,22.66Z"/><path class="cls-1" d="M302.65,25.43a15.29,15.29,0,0,1,2.55-6.32,15.31,15.31,0,0,1,4.67-5,15.15,15.15,0,0,1-2.55,6.32A15.45,15.45,0,0,1,302.65,25.43Z"/><path class="cls-1" d="M302.65,30.69A35.37,35.37,0,0,1,309,22.17a35.14,35.14,0,0,1,8.19-6.78,35,35,0,0,1-6.36,8.52A35.49,35.49,0,0,1,302.65,30.69Z"/><path class="cls-1" d="M78.92,12.85a20.82,20.82,0,0,1,7.84-8.17c3.49-2,8-2.87,11.88-1.34,5.67,2.27,10.08,9.73,6.5,15.42a10.88,10.88,0,0,1-10.88,4.66,12.48,12.48,0,0,0,7.3-3.73A7,7,0,0,0,103,12.13a11,11,0,0,0-5.35-5.68c-3.17-1.45-7-.82-10.06.47A30.42,30.42,0,0,0,78.92,12.85Z"/><path class="cls-1" d="M91.35,13.6a9.57,9.57,0,0,1,3.76,11.66C92.65,30.81,85,33,79.68,30.57a11.46,11.46,0,0,1-5.92-5.91c2.82,2.47,6.54,4.23,10.35,3.89a12.38,12.38,0,0,0,6.32-2.37A7.9,7.9,0,0,0,93,22.68C93.93,19.54,93,16.34,91.35,13.6Z"/><path class="cls-1" d="M78.35,28.66c-6,3.65-14.33,1.61-17.71-4.57-4.54-8.32.75-19.67,10.27-20.9A14.68,14.68,0,0,1,83.57,8c-4.43-2.63-9.91-3.9-14.75-1.5A12.63,12.63,0,0,0,62.4,19.7a11,11,0,0,0,2.17,5.13l0,0C67.94,28.82,73.37,30,78.35,28.66Z"/><path class="cls-1" d="M96.64,27.25a21.25,21.25,0,0,1,5.92,5.42,21,21,0,0,1,4,7,21,21,0,0,1-5.92-5.42A21.24,21.24,0,0,1,96.64,27.25Z"/><path class="cls-1" d="M82.81,34.12a30.89,30.89,0,0,1,8.32,5.18,30.69,30.69,0,0,1,6.76,7.09,30.6,30.6,0,0,1-8.32-5.18A31,31,0,0,1,82.81,34.12Z"/><path class="cls-1" d="M92.95,34.12a12.51,12.51,0,0,1,4.7,3.76,12.3,12.3,0,0,1,2.8,5.32,12.39,12.39,0,0,1-4.7-3.76A12.41,12.41,0,0,1,92.95,34.12Z"/><path class="cls-1" d="M386.22,39.87a16.88,16.88,0,0,1-10.28,1.42,17.25,17.25,0,0,1-10.3-6.7,13.64,13.64,0,0,1-1.34-14.15c3-6.79,9.78-12.83,17.51-12.84,6,0,12,4.11,14.45,9.53,1.42,3.09,1.86,7.15.33,10.31a11.12,11.12,0,0,1-9.56,6c3.81-1.46,7.52-4.67,7.44-8.94-.11-5.84-5.05-10.86-10.74-11.75-6-1-11.83,4-14.54,9-1.83,3.39-2.3,6.8-.43,10.27A15.76,15.76,0,0,0,377,39.2,19.33,19.33,0,0,0,386.22,39.87Z"/><path class="cls-1" d="M379.79,41a15.69,15.69,0,0,0,6.41,5.74c2.11,1.1,6,.69,8.48-.23s5.86-3.27,6.57-5.62a12.59,12.59,0,0,0-5.44-15.8c8.67,0,13,10.58,10.13,17.73-3.13,7.91-14,11.73-21.22,6.91A11.3,11.3,0,0,1,379.79,41Z"/><path class="cls-1" d="M375.65,46.11c-2.62,2.8-6.3,4.75-9.79,6.2s-7.47,2.7-11.3,2.57c2.61-2.8,6.3-4.75,9.79-6.2S371.82,46,375.65,46.11Z"/><path class="cls-1" d="M363.57,40.94c-1.62,4.67-7.18,8.88-12.12,9.14C353.06,45.41,358.63,41.22,363.57,40.94Z"/><path class="cls-1" d="M359.19,32.46c-.62,4.9-5.17,10.15-9.94,11.43C349.85,39,354.43,33.75,359.19,32.46Z"/><path class="cls-1" d="M27.42,46.31A16.88,16.88,0,0,1,34,54.37a17.25,17.25,0,0,1-.39,12.28,13.64,13.64,0,0,1-11.4,8.48c-7.36,1-16-1.71-20.06-8.32C-1,61.66-.57,54.45,2.78,49.52c1.91-2.82,5.15-5.29,8.65-5.63a11.12,11.12,0,0,1,10.11,5.06c-3.22-2.51-7.89-4-11.5-1.73C5.1,50.35,3.37,57.17,5.55,62.5c2.32,5.66,9.58,8,15.25,7.75,3.84-.19,7-1.56,9-5a15.76,15.76,0,0,0,1.82-10.74A19.33,19.33,0,0,0,27.42,46.31Z"/><path class="cls-1" d="M31.69,51.25a15.69,15.69,0,0,0,1.58-8.46c-.15-2.38-2.53-5.5-4.59-7.13s-5.83-3.32-8.21-2.7A12.59,12.59,0,0,0,9.79,45.8c-4.5-7.41,2.33-16.56,9.9-17.86,8.39-1.43,17.3,5.92,16.92,14.56A11.3,11.3,0,0,1,31.69,51.25Z"/><path class="cls-1" d="M38.24,52.11C42,52.9,45.57,55,48.63,57.27s6.18,5,8.06,8.33c-3.75-.78-7.33-2.92-10.38-5.16S40.13,55.45,38.24,52.11Z"/><path class="cls-1" d="M40.09,65.12c4.83-1,11.31,1.53,14.1,5.62C49.36,71.79,42.89,69.2,40.09,65.12Z"/><path class="cls-1" d="M35.11,73.27c4.5-2,11.36-.85,14.93,2.57C45.53,77.87,38.68,76.67,35.11,73.27Z"/><path class="cls-1" d="M345.15,84.78c3.26,2.26,7.42,3.45,11.27,4.2s8.15,1.23,12,.34c-3.25-2.27-7.42-3.45-11.27-4.2S349,83.9,345.15,84.78Z"/><path class="cls-1" d="M345.89,91.73c1.13,4.22,6.07,7.88,10.43,7.76C355.2,95.26,350.24,91.62,345.89,91.73Z"/></svg>