<svg id="level-easy" data-name="level-easy" xmlns="http://www.w3.org/2000/svg" viewBox="0 0 417.38 74.55"><title>level-easy</title><path d="M80.31,44.45V59.6h42.83V72.75h-59V1.4h55.37V14.55H80.31v16H115V44.45Z"/><path d="M127.7,72.85,162.13,1.8h16.79l33.9,71.06H196.67l-7.44-15.75H150.86l-8,15.75Zm43-57.7L158,42.66h25.19L170.85,15.15Z"/><path d="M232.05,51.73c1.7,9.37,10.63,10.67,16.79,10.67,5.85,0,14.77-1.59,14.77-8.87,0-15.15-45.17-5.38-45.17-32C218.45,6.88,233.12,0,246.82,0c15.83,0,30.4,6.48,30.4,22.92l-16.16-2.19c-2-8.27-9.77-8.57-15-8.57s-11.48,2.09-11.48,8.07c0,5.28,3.61,6.48,22.64,10.76,5.63,1.3,22.53,4.59,22.53,20.73,0,13.06-10.84,22.82-31.56,22.82-17,0-32.31-7.77-32.31-25.32Z"/><path d="M309.31,45.15,281.36,1.7h18.81L317.92,29.8,335.56,1.7h18.6L326,45.55V72.85H309.31Z"/><path d="M25,36.46q1.37-1.3,1.37-4.3a4.6,4.6,0,0,0-1.31-3.71q-1.31-1.1-5-1.1a4.94,4.94,0,0,0-2.23.31,1.23,1.23,0,0,0-.47,1.12v9H20.5Q23.68,37.76,25,36.46Z"/><path d="M21.57,39.44H17.41v9.74a1.77,1.77,0,0,0,.33,1.16,1.12,1.12,0,0,0,.91.4H22.2a5.75,5.75,0,0,0,4.09-1.39,5.34,5.34,0,0,0,1.49-4.09,5.65,5.65,0,0,0-1.59-4.32A6.51,6.51,0,0,0,21.57,39.44Z"/><path d="M20.83,18.61A20.63,20.63,0,0,0,0,39,20.63,20.63,0,0,0,20.83,59.44,20.63,20.63,0,0,0,41.67,39,20.63,20.63,0,0,0,20.83,18.61ZM32.64,49.38a8.24,8.24,0,0,1-3.48,2.12,15.91,15.91,0,0,1-4.77.88v4.15h-3V52.43h-3.8v4.11h-3V52.43h-7V50.74h2.51a1.23,1.23,0,0,0,1-.38,1.88,1.88,0,0,0,.44-1.25V28.38a.89.89,0,0,0-.42-.76,2.53,2.53,0,0,0-1.4-.29H7.62V25.65h7V21.51h3v4.13h3.8V21.51h3v4.15a9.27,9.27,0,0,1,5.89,1.79,5.55,5.55,0,0,1,2.22,4.48,5.21,5.21,0,0,1-1.77,4,12.21,12.21,0,0,1-5.3,2.53q4.68.76,6.65,2.52a5.66,5.66,0,0,1,2,4.4A6.08,6.08,0,0,1,32.64,49.38Z"/><path d="M400.76,36.46q1.37-1.3,1.37-4.3a4.6,4.6,0,0,0-1.31-3.71q-1.31-1.1-5-1.1a4.94,4.94,0,0,0-2.23.31,1.23,1.23,0,0,0-.47,1.12v9h3.09Q399.39,37.76,400.76,36.46Z"/><path d="M397.29,39.44h-4.16v9.74a1.77,1.77,0,0,0,.33,1.16,1.12,1.12,0,0,0,.91.4h3.55A5.75,5.75,0,0,0,402,49.35a5.34,5.34,0,0,0,1.49-4.09,5.65,5.65,0,0,0-1.59-4.32A6.51,6.51,0,0,0,397.29,39.44Z"/><path d="M396.55,18.61A20.63,20.63,0,0,0,375.71,39a20.84,20.84,0,0,0,41.67,0A20.63,20.63,0,0,0,396.55,18.61Zm11.81,30.77a8.24,8.24,0,0,1-3.48,2.12,15.91,15.91,0,0,1-4.77.88v4.15h-3V52.43h-3.8v4.11h-3V52.43h-7V50.74h2.51a1.23,1.23,0,0,0,1-.38,1.88,1.88,0,0,0,.44-1.25V28.38a.89.89,0,0,0-.42-.76,2.53,2.53,0,0,0-1.4-.29h-2.12V25.65h7V21.51h3v4.13h3.8V21.51h3v4.15A9.27,9.27,0,0,1,406,27.45a5.55,5.55,0,0,1,2.22,4.48,5.21,5.21,0,0,1-1.77,4,12.21,12.21,0,0,1-5.3,2.53q4.68.76,6.65,2.52a5.66,5.66,0,0,1,2,4.4A6.08,6.08,0,0,1,408.36,49.38Z"/></svg>
