<svg id="level-normal" data-name="level-normal" xmlns="http://www.w3.org/2000/svg" viewBox="0 0 417.38 79.46"><title>level-normal</title><path d="M49.15.32h16l13,34.1L90.9.32h16.28V77.62H95.62V23h-.16L83,58.13H73.45L61,23.49h-.15V77.62H49.15Z"/><path d="M129.66,46.77V63.22h31.69V77.51H117.71V0h41V14.29h-29V31.72H155.3v15Z"/><path d="M170.08.32h24.22c14.54,0,25.47,12.67,25.47,38.21,0,22.41-8.33,39.08-25.47,39.08H170.08Zm12.35,63h11c7.15,0,14-6.06,14-23.17,0-15.59-4-25.55-16.2-25.55h-8.8Z"/><path d="M228.34.32h12.35V77.62H228.34Z"/><path d="M299.18,48.39c0,20.89-9,31.07-24,31.07-15.17,0-23.9-10-23.9-31.07V.32h12.35V48.39c0,8.44,1.57,16.78,11.56,16.78,8.81,0,11.64-5.2,11.64-16.78V.32h12.35Z"/><path d="M311.13.32h16l13,34.1L352.88.32h16.28V77.62H357.6V23h-.16l-12.5,35.18h-9.51L323,23.49h-.15V77.62H311.13Z"/><path d="M25,36.46q1.37-1.3,1.37-4.3a4.6,4.6,0,0,0-1.31-3.71q-1.31-1.1-5-1.1a4.94,4.94,0,0,0-2.23.31,1.23,1.23,0,0,0-.47,1.12v9H20.5Q23.68,37.76,25,36.46Z"/><path d="M21.57,39.44H17.41v9.74a1.77,1.77,0,0,0,.33,1.16,1.12,1.12,0,0,0,.91.4H22.2a5.75,5.75,0,0,0,4.09-1.39,5.34,5.34,0,0,0,1.49-4.09,5.65,5.65,0,0,0-1.59-4.32A6.51,6.51,0,0,0,21.57,39.44Z"/><path d="M20.83,18.61A20.63,20.63,0,0,0,0,39,20.63,20.63,0,0,0,20.83,59.44,20.63,20.63,0,0,0,41.67,39,20.63,20.63,0,0,0,20.83,18.61ZM32.64,49.38a8.24,8.24,0,0,1-3.48,2.12,15.91,15.91,0,0,1-4.77.88v4.15h-3V52.43h-3.8v4.11h-3V52.43h-7V50.74h2.51a1.23,1.23,0,0,0,1-.38,1.88,1.88,0,0,0,.44-1.25V28.38a.89.89,0,0,0-.42-.76,2.53,2.53,0,0,0-1.4-.29H7.62V25.65h7V21.51h3v4.13h3.8V21.51h3v4.15a9.27,9.27,0,0,1,5.89,1.79,5.55,5.55,0,0,1,2.22,4.48,5.21,5.21,0,0,1-1.77,4,12.21,12.21,0,0,1-5.3,2.53q4.68.76,6.65,2.52a5.66,5.66,0,0,1,2,4.4A6.08,6.08,0,0,1,32.64,49.38Z"/><path d="M400.76,36.46q1.37-1.3,1.37-4.3a4.6,4.6,0,0,0-1.31-3.71q-1.31-1.1-5-1.1a4.94,4.94,0,0,0-2.23.31,1.23,1.23,0,0,0-.47,1.12v9h3.09Q399.39,37.76,400.76,36.46Z"/><path d="M397.29,39.44h-4.16v9.74a1.77,1.77,0,0,0,.33,1.16,1.12,1.12,0,0,0,.91.4h3.55A5.75,5.75,0,0,0,402,49.35a5.34,5.34,0,0,0,1.49-4.09,5.65,5.65,0,0,0-1.59-4.32A6.51,6.51,0,0,0,397.29,39.44Z"/><path d="M396.55,18.61A20.63,20.63,0,0,0,375.71,39a20.84,20.84,0,0,0,41.67,0A20.63,20.63,0,0,0,396.55,18.61Zm11.81,30.77a8.24,8.24,0,0,1-3.48,2.12,15.91,15.91,0,0,1-4.77.88v4.15h-3V52.43h-3.8v4.11h-3V52.43h-7V50.74h2.51a1.23,1.23,0,0,0,1-.38,1.88,1.88,0,0,0,.44-1.25V28.38a.89.89,0,0,0-.42-.76,2.53,2.53,0,0,0-1.4-.29h-2.12V25.65h7V21.51h3v4.13h3.8V21.51h3v4.15A9.27,9.27,0,0,1,406,27.45a5.55,5.55,0,0,1,2.22,4.48,5.21,5.21,0,0,1-1.77,4,12.21,12.21,0,0,1-5.3,2.53q4.68.76,6.65,2.52a5.66,5.66,0,0,1,2,4.4A6.08,6.08,0,0,1,408.36,49.38Z"/></svg>
