<svg id="레이어_1" data-name="레이어 1" xmlns="http://www.w3.org/2000/svg" viewBox="0 0 406.79 100"><title>패턴</title><path d="M41.09,74.42a4.76,4.76,0,0,0,1.14-3.57,3.82,3.82,0,0,0-1.09-3.08Q40,66.86,37,66.86a4.1,4.1,0,0,0-1.85.26,1,1,0,0,0-.39.93V75.5h2.56A5.39,5.39,0,0,0,41.09,74.42Z"/><path d="M38.2,76.9H34.75V85a1.47,1.47,0,0,0,.28,1,.93.93,0,0,0,.75.33h2.94a4.77,4.77,0,0,0,3.4-1.16,4.43,4.43,0,0,0,1.23-3.4A4.69,4.69,0,0,0,42,78.14,5.4,5.4,0,0,0,38.2,76.9Z"/><path d="M37.59,59.61A16.94,16.94,0,1,0,54.88,76.55,17.12,17.12,0,0,0,37.59,59.61Zm9.8,25.54A6.84,6.84,0,0,1,44.5,86.9a13.2,13.2,0,0,1-4,.73v3.44H38.07V87.67H34.91v3.41H32.44V87.67H26.62v-1.4h2.09a1,1,0,0,0,.81-.32,1.56,1.56,0,0,0,.37-1V67.71a.74.74,0,0,0-.35-.63,2.1,2.1,0,0,0-1.16-.24H26.62v-1.4h5.82V62h2.47v3.43h3.16V62h2.47v3.44a7.7,7.7,0,0,1,4.89,1.48,4.6,4.6,0,0,1,1.84,3.72A4.33,4.33,0,0,1,45.8,74a10.13,10.13,0,0,1-4.4,2.1q3.88.63,5.52,2.09a4.69,4.69,0,0,1,1.63,3.65A5,5,0,0,1,47.39,85.14Z"/><path d="M89.77,81.58c-20,0-36.28-15.95-36.28-35.55S69.76,10.49,89.77,10.49,126.06,26.44,126.06,46,109.78,81.58,89.77,81.58Zm0-67.59c-18,0-32.71,14.38-32.71,32s14.67,32,32.71,32,32.71-14.37,32.71-32S107.81,14,89.77,14Z"/><path d="M95.47,42.57q1.85-1.76,1.85-5.82,0-3.52-1.77-5T88.8,30.25a6.67,6.67,0,0,0-3,.42,1.67,1.67,0,0,0-.64,1.51V44.33h4.17Q93.62,44.33,95.47,42.57Z"/><path d="M90.77,46.6H85.15V59.78a2.39,2.39,0,0,0,.45,1.57,1.51,1.51,0,0,0,1.23.54h4.8A7.77,7.77,0,0,0,97.16,60a7.22,7.22,0,0,0,2-5.53A7.63,7.63,0,0,0,97,48.62Q94.87,46.6,90.77,46.6Z"/><path d="M89.77,18.44C74.22,18.44,61.6,30.8,61.6,46s12.61,27.6,28.17,27.6S117.94,61.28,117.94,46,105.33,18.44,89.77,18.44Zm16,41.6A11.14,11.14,0,0,1,101,62.91a21.5,21.5,0,0,1-6.45,1.2v5.61h-4V64.16H85.42v5.56h-4V64.16H71.91V61.88h3.4a1.67,1.67,0,0,0,1.32-.51,2.54,2.54,0,0,0,.6-1.69v-28a1.2,1.2,0,0,0-.56-1,3.41,3.41,0,0,0-1.89-.39H71.91V28h9.49V22.36h4V28h5.14V22.36h4V28c3.35,0,6,.84,8,2.42a7.5,7.5,0,0,1,3,6.05,7,7,0,0,1-2.39,5.38A16.5,16.5,0,0,1,96,45.24q6.32,1,9,3.41a7.65,7.65,0,0,1,2.66,6A8.22,8.22,0,0,1,105.74,60Z"/><path d="M383.48,93.74a12.77,12.77,0,1,1,13-12.77A12.91,12.91,0,0,1,383.48,93.74Zm0-24.27A11.51,11.51,0,1,0,395.22,81,11.64,11.64,0,0,0,383.48,69.46Z"/><path d="M385.52,79.72a2.79,2.79,0,0,0,.66-2.09,2.24,2.24,0,0,0-.64-1.8,3.94,3.94,0,0,0-2.42-.54,2.4,2.4,0,0,0-1.08.15.6.6,0,0,0-.23.54v4.36h1.5A3.15,3.15,0,0,0,385.52,79.72Z"/><path d="M383.84,81.17h-2V85.9a.86.86,0,0,0,.16.56.54.54,0,0,0,.44.19h1.72a2.79,2.79,0,0,0,2-.68,2.59,2.59,0,0,0,.72-2,2.74,2.74,0,0,0-.77-2.1A3.16,3.16,0,0,0,383.84,81.17Z"/><path d="M383.48,71.06A9.91,9.91,0,1,0,393.59,81,10,10,0,0,0,383.48,71.06ZM389.21,86a4,4,0,0,1-1.69,1,7.72,7.72,0,0,1-2.32.43v2h-1.44v-2h-1.85v2h-1.44v-2h-3.41v-.82h1.22a.6.6,0,0,0,.48-.18.91.91,0,0,0,.22-.61V75.8a.43.43,0,0,0-.2-.37,1.23,1.23,0,0,0-.68-.14h-1v-.82h3.41v-2h1.44v2h1.85v-2h1.44v2a4.5,4.5,0,0,1,2.86.87,2.69,2.69,0,0,1,1.08,2.17,2.53,2.53,0,0,1-.86,1.93,5.93,5.93,0,0,1-2.57,1.23,6.45,6.45,0,0,1,3.23,1.22,2.75,2.75,0,0,1,1,2.14A3,3,0,0,1,389.21,86Z"/><path d="M348,55.14q-3.23-2.89-10.91-4.14,5.8-1.48,8.7-4.16a8.56,8.56,0,0,0,2.9-6.54A9.11,9.11,0,0,0,345,33c-2.36-1.92-5.6-2.89-9.67-2.94V23.21h-4.89V30h-6.25V23.21h-4.89V30H307.83v2.77h3.49a4.15,4.15,0,0,1,2.29.48,1.46,1.46,0,0,1,.68,1.25V68.54a3.08,3.08,0,0,1-.73,2.05,2,2,0,0,1-1.61.62h-4.13V74h11.53v6.75h4.89V74h6.25v6.75h4.89V73.92a26.12,26.12,0,0,0,7.83-1.45A13.54,13.54,0,0,0,348.93,69a10,10,0,0,0,2.31-6.61A9.29,9.29,0,0,0,348,55.14ZM328.35,32.79q6,0,8.2,1.81t2.16,6.09q0,4.93-2.25,7.07T329,49.89h-5.07V35.14a2,2,0,0,1,.77-1.84A8.11,8.11,0,0,1,328.35,32.79ZM338.5,68.93a9.44,9.44,0,0,1-6.73,2.29H326a1.84,1.84,0,0,1-1.49-.65,2.9,2.9,0,0,1-.55-1.9v-16h6.83q5,0,7.59,2.45t2.61,7.09Q340.95,66.64,338.5,68.93Z"/><path d="M328.36,93.21c-23.21,0-42.09-18.5-42.09-41.23s18.88-41.23,42.09-41.23S370.45,29.23,370.45,52,351.57,93.21,328.36,93.21Zm0-76.08c-19.62,0-35.57,15.63-35.57,34.85s16,34.85,35.57,34.85S363.93,71.19,363.93,52,348,17.12,328.36,17.12Z"/></svg>
