<svg id="b-coin1" data-name="b-coin1" xmlns="http://www.w3.org/2000/svg" viewBox="0 0 127.42 100"><title>b-coin1</title><path d="M25,77q1.37-1.3,1.37-4.3A4.6,4.6,0,0,0,25.1,69q-1.31-1.1-5-1.1a4.94,4.94,0,0,0-2.23.31,1.23,1.23,0,0,0-.47,1.12v9H20.5Q23.68,78.32,25,77Z"/><path d="M21.57,80H17.41v9.74a1.77,1.77,0,0,0,.33,1.16,1.12,1.12,0,0,0,.91.4H22.2a5.75,5.75,0,0,0,4.09-1.39,5.34,5.34,0,0,0,1.49-4.09,5.65,5.65,0,0,0-1.59-4.32A6.51,6.51,0,0,0,21.57,80Z"/><path d="M20.83,59.18a20.42,20.42,0,1,0,0,40.82,20.42,20.42,0,1,0,0-40.82ZM32.64,89.95a8.24,8.24,0,0,1-3.48,2.12,15.91,15.91,0,0,1-4.77.88V97.1h-3V93h-3.8V97.1h-3V93h-7V91.31h2.51a1.23,1.23,0,0,0,1-.38,1.88,1.88,0,0,0,.44-1.25V68.94a.89.89,0,0,0-.42-.76,2.53,2.53,0,0,0-1.4-.29H7.62V66.21h7V62.08h3v4.13h3.8V62.08h3v4.15A9.27,9.27,0,0,1,30.28,68a5.55,5.55,0,0,1,2.22,4.48,5.21,5.21,0,0,1-1.77,4A12.21,12.21,0,0,1,25.44,79q4.68.76,6.65,2.52a5.66,5.66,0,0,1,2,4.4A6.08,6.08,0,0,1,32.64,89.95Z"/><path d="M83.71,85.66C59.6,85.66,40,66.44,40,42.83S59.6,0,83.71,0s43.72,19.21,43.72,42.83S107.81,85.66,83.71,85.66Zm0-81.44C62,4.22,44.3,21.54,44.3,42.83S62,81.44,83.71,81.44s39.41-17.32,39.41-38.61S105.44,4.22,83.71,4.22Z"/><path d="M90.57,38.65q2.23-2.12,2.23-7,0-4.24-2.14-6t-8.13-1.8a8,8,0,0,0-3.63.5,2,2,0,0,0-.77,1.82V40.77h5Q88.34,40.77,90.57,38.65Z"/><path d="M84.91,43.51H78.14V59.38a2.88,2.88,0,0,0,.54,1.89,1.82,1.82,0,0,0,1.48.65h5.78a9.37,9.37,0,0,0,6.67-2.27Q95,57.37,95,53q0-4.6-2.59-7T84.91,43.51Z"/><path d="M83.71,9.58C65,9.58,49.77,24.47,49.77,42.83S65,76.08,83.71,76.08s33.94-14.89,33.94-33.25S102.45,9.58,83.71,9.58ZM102.95,59.7a13.43,13.43,0,0,1-5.67,3.45A25.91,25.91,0,0,1,89.5,64.6v6.76H84.65v-6.7H78.46v6.7H73.61v-6.7H62.18V61.92h4.09a2,2,0,0,0,1.59-.62,3.06,3.06,0,0,0,.72-2V25.49a1.45,1.45,0,0,0-.68-1.24,4.11,4.11,0,0,0-2.27-.47H62.18V21H73.61V14.3h4.85V21h6.19V14.3H89.5v6.75c4,.05,7.25,1,9.59,2.91a9,9,0,0,1,3.61,7.29,8.49,8.49,0,0,1-2.88,6.48Q97,40.4,91.2,41.87,98.82,43.11,102,46a9.21,9.21,0,0,1,3.21,7.17A9.91,9.91,0,0,1,102.95,59.7Z"/></svg>
