<?xml version="1.0" encoding="utf-8"?>
<!-- Generator: Adobe Illustrator 25.2.0, SVG Export Plug-In . SVG Version: 6.00 Build 0)  -->
<svg version="1.1" id="Capa_1" xmlns="http://www.w3.org/2000/svg" xmlns:xlink="http://www.w3.org/1999/xlink" x="0px" y="0px"
	 viewBox="0 0 356.4 356.4" style="enable-background:new 0 0 356.4 356.4;" xml:space="preserve">
<g class="st0">
	<g id="Layer_5_17_" class="st1">
		<g>
			<path d="M36.3,177.1h-179.1c-15,0-27.2,12.2-27.2,27.2v179.1c0,15,12.2,27.2,27.2,27.2H36.3c15,0,27.2-12.2,27.2-27.2V204.3
				C63.5,189.4,51.3,177.1,36.3,177.1z M-115.1,381.2c-14.1,0-25.4-11.4-25.4-25.4c0-14,11.4-25.4,25.4-25.4
				c14,0,25.4,11.4,25.4,25.4C-89.7,369.9-101.1,381.2-115.1,381.2z M-115.1,257.4c-14.1,0-25.4-11.4-25.4-25.4
				c0-14.1,11.4-25.4,25.4-25.4c14,0,25.4,11.4,25.4,25.4C-89.7,246-101.1,257.4-115.1,257.4z M-53.2,316.1
				c-14,0-25.4-11.4-25.4-25.4c0-14.1,11.4-25.4,25.4-25.4s25.4,11.4,25.4,25.4C-27.8,304.7-39.2,316.1-53.2,316.1z M8.7,381.2
				c-14,0-25.4-11.4-25.4-25.4c0-14,11.4-25.4,25.4-25.4c14,0,25.4,11.4,25.4,25.4C34.1,369.9,22.7,381.2,8.7,381.2z M8.7,257.4
				c-14,0-25.4-11.4-25.4-25.4c0-14.1,11.4-25.4,25.4-25.4c14.1,0,25.4,11.4,25.4,25.4C34.1,246,22.7,257.4,8.7,257.4z"/>
			<path d="M157.1,64.6l-193.3,0c-16.2,0-29.4,13.2-29.4,29.4v43.9c0,0-0.5,10.9,12.1,10.9c23.4,0,98,0,98,0
				c26.8,0,48.6,21.8,48.6,48.6v106.5c0,12.7,11.4,12.7,17.4,12.7c23.1,0,46.6,0,46.6,0c16.2,0,29.4-13.2,29.4-29.4V94
				C186.4,77.8,173.2,64.6,157.1,64.6z M127.2,151.3c-15.2,0-27.5-12.3-27.5-27.5c0-15.2,12.3-27.5,27.5-27.5
				c15.2,0,27.5,12.3,27.5,27.5C154.7,139,142.4,151.3,127.2,151.3z"/>
		</g>
	</g>
</g>
<path d="M275.1,52.5H81.3c-15.9,0-28.8,12.9-28.8,28.8v193.8c0,15.9,12.9,28.8,28.8,28.8h193.8c15.9,0,28.8-12.9,28.8-28.8V81.3
	C303.9,65.4,291,52.5,275.1,52.5z M178.2,251.5c-5.8,0-10.5-4.7-10.5-10.5c0-5.8,4.7-10.5,10.5-10.5s10.5,4.7,10.5,10.5
	C188.7,246.9,184,251.5,178.2,251.5z M195,182.5c-3.8,1.7-6.3,5.4-6.3,9.6v7c0,5.8-4.7,10.5-10.5,10.5s-10.5-4.7-10.5-10.5v-7
	c0-12.6,7.5-23.9,19-28.9c10.6-4.6,17.7-16.3,17.7-24.4c0-14.4-11.8-26.2-26.2-26.2S152,124.5,152,138.9c0,5.8-4.7,10.5-10.5,10.5
	c-5.8,0-10.5-4.7-10.5-10.5c0-26,21.1-47.1,47.1-47.1s47.1,21.1,47.1,47.1C225.4,156.3,212.3,175.1,195,182.5z"/>
</svg>
