<?xml version="1.0" encoding="utf-8"?>
<!-- Generator: Adobe Illustrator 25.2.0, SVG Export Plug-In . SVG Version: 6.00 Build 0)  -->
<svg version="1.1" id="Capa_1" xmlns="http://www.w3.org/2000/svg" xmlns:xlink="http://www.w3.org/1999/xlink" x="0px" y="0px"
	 viewBox="0 0 356.4 356.4" style="enable-background:new 0 0 356.4 356.4;" xml:space="preserve">
<g class="st0">
	<g id="Layer_5_17_" class="st1">
		<g>
			<path d="M36.3,177.1h-179.1c-15,0-27.2,12.2-27.2,27.2v179.1c0,15,12.2,27.2,27.2,27.2H36.3c15,0,27.2-12.2,27.2-27.2V204.3
				C63.5,189.4,51.3,177.1,36.3,177.1z M-115.1,381.2c-14.1,0-25.4-11.4-25.4-25.4s11.4-25.4,25.4-25.4s25.4,11.4,25.4,25.4
				C-89.7,369.9-101.1,381.2-115.1,381.2z M-115.1,257.4c-14.1,0-25.4-11.4-25.4-25.4c0-14.1,11.4-25.4,25.4-25.4
				S-89.7,218-89.7,232S-101.1,257.4-115.1,257.4z M-53.2,316.1c-14,0-25.4-11.4-25.4-25.4c0-14.1,11.4-25.4,25.4-25.4
				s25.4,11.4,25.4,25.4C-27.8,304.7-39.2,316.1-53.2,316.1z M8.7,381.2c-14,0-25.4-11.4-25.4-25.4s11.4-25.4,25.4-25.4
				s25.4,11.4,25.4,25.4C34.1,369.9,22.7,381.2,8.7,381.2z M8.7,257.4c-14,0-25.4-11.4-25.4-25.4c0-14.1,11.4-25.4,25.4-25.4
				c14.1,0,25.4,11.4,25.4,25.4S22.7,257.4,8.7,257.4z"/>
			<path d="M157.1,64.6H-36.2c-16.2,0-29.4,13.2-29.4,29.4v43.9c0,0-0.5,10.9,12.1,10.9c23.4,0,98,0,98,0
				c26.8,0,48.6,21.8,48.6,48.6v106.5c0,12.7,11.4,12.7,17.4,12.7c23.1,0,46.6,0,46.6,0c16.2,0,29.4-13.2,29.4-29.4V94
				C186.4,77.8,173.2,64.6,157.1,64.6z M127.2,151.3c-15.2,0-27.5-12.3-27.5-27.5s12.3-27.5,27.5-27.5s27.5,12.3,27.5,27.5
				S142.4,151.3,127.2,151.3z"/>
		</g>
	</g>
</g>
<g>
	<path class="st2" d="M244.5,100.2H111.9c-6.5,0-11.8,5.3-11.8,11.8v132.6c0,6.5,5.3,11.8,11.8,11.8h132.6c6.5,0,11.8-5.3,11.8-11.8
		V111.9C256.3,105.4,251,100.2,244.5,100.2z M217.5,151.5l-32.2,78.4h-28l33.6-78.4h-49v-19.6h75.6V151.5z"/>
	<path d="M88,291.8v-23.3c-2.6-2.6-4.2-6.1-4.2-10.1v-55.8c-3-3.4-7.5-5.6-12.4-5.6c-9.1,0-16.6,7.4-16.6,16.6v78.2l-24.2-24.2
		c-6.8-6.8-17.8-6.8-24.6,0s-6.8,17.8,0,24.6l63,63c1.3,1.3,3.4,1.3,4.7,0l63-63c5.3-5.3,6.4-13.1,3.5-19.5h-33.1L88,291.8z"/>
	<path d="M351.4,64l-63-63c-1.3-1.3-3.4-1.3-4.7,0l-63,63c-5.4,5.4-6.5,13.4-3.4,19.8H250l19.4-19.4V89c2,2.5,3.2,5.6,3.2,9v54.3
		c3,4.1,7.9,6.8,13.4,6.8c9.1,0,16.6-7.4,16.6-16.6V64.4l24.2,24.2c6.8,6.8,17.8,6.8,24.6,0C358.1,81.8,358.1,70.8,351.4,64z"/>
</g>
</svg>
