<?xml version="1.0" encoding="iso-8859-1"?>
<!-- Generator: Adobe Illustrator 19.0.0, SVG Export Plug-In . SVG Version: 6.00 Build 0)  -->
<svg version="1.1" id="Layer_1" xmlns="http://www.w3.org/2000/svg" xmlns:xlink="http://www.w3.org/1999/xlink" x="0px" y="0px"
	 viewBox="0 0 512 512" style="enable-background:new 0 0 512 512;" xml:space="preserve">
<g>
	<g>
		<path d="M289.394,239.304h-16.698v-16.698c0-9.22-7.475-16.696-16.696-16.696c-9.22,0-16.696,7.475-16.696,16.696v16.698h-16.696
			c-9.22,0-16.696,7.475-16.696,16.696c0,9.22,7.475,16.696,16.696,16.696h16.696v16.696c0,9.22,7.475,16.696,16.696,16.696
			c9.22,0,16.696-7.475,16.696-16.696v-16.696h16.698c9.22,0,16.696-7.475,16.696-16.696
			C306.089,246.78,298.614,239.304,289.394,239.304z"/>
	</g>
</g>
<g>
	<g>
		<circle cx="189.217" cy="97.391" r="16.696"/>
	</g>
</g>
<g>
	<g>
		<path d="M256,0C114.842,0,0,114.842,0,256s114.842,256,256,256s256-114.842,256-256S397.158,0,256,0z M477.985,239.304H371.672
			c-2.84-19.771-10.641-37.961-22.106-53.259l75.13-75.13C454.873,145.953,474.346,190.457,477.985,239.304z M272.695,34.016h0.001
			c48.847,3.64,93.351,23.112,128.388,53.288l-75.13,75.13c-15.297-11.465-33.487-19.267-53.259-22.106V34.016z M239.304,34.016
			v106.312c-19.771,2.841-37.961,10.641-53.259,22.106l-75.13-75.13C145.953,57.128,190.457,37.655,239.304,34.016z M87.305,110.915
			l75.13,75.13c-11.465,15.297-19.266,33.487-22.106,53.259H34.016C37.655,190.457,57.128,145.953,87.305,110.915z M34.016,272.696
			h106.312c2.841,19.771,10.641,37.961,22.106,53.259l-75.13,75.13C57.128,366.047,37.655,321.543,34.016,272.696z M239.305,477.984
			h-0.001c-48.847-3.64-93.351-23.112-128.388-53.288l75.13-75.13c15.297,11.465,33.487,19.267,53.259,22.106V477.984z M256,339.477
			c-0.004,0-0.01,0-0.014,0c-45.981-0.008-83.455-37.417-83.464-83.464c0-0.004,0.001-0.009,0.001-0.014
			c0-0.006-0.001-0.009-0.001-0.013c0.009-46.061,37.501-83.464,83.478-83.464c45.872,0,83.478,37.3,83.478,83.478
			c0,46.285-37.71,83.47-83.464,83.478C256.01,339.478,256.004,339.477,256,339.477z M272.696,477.984V371.672
			c19.771-2.84,37.961-10.641,53.259-22.106l75.13,75.13C366.047,454.872,321.543,474.345,272.696,477.984z M424.695,401.085
			l-75.13-75.13c11.465-15.297,19.266-33.487,22.106-53.259h106.312C474.345,321.543,454.872,366.047,424.695,401.085z"/>
	</g>
</g>
<g>
</g>
<g>
</g>
<g>
</g>
<g>
</g>
<g>
</g>
<g>
</g>
<g>
</g>
<g>
</g>
<g>
</g>
<g>
</g>
<g>
</g>
<g>
</g>
<g>
</g>
<g>
</g>
<g>
</g>
</svg>
