<?xml version="1.0" encoding="utf-8"?>
<!-- Generator: Adobe Illustrator 25.2.0, SVG Export Plug-In . SVG Version: 6.00 Build 0)  -->
<svg version="1.1" id="Layer_1" xmlns="http://www.w3.org/2000/svg" xmlns:xlink="http://www.w3.org/1999/xlink" x="0px" y="0px"
	 viewBox="0 0 511 511" style="enable-background:new 0 0 511 511;" xml:space="preserve">
<g>
	<g>
		<path d="M188.3,7.1L61.4,133.9c-7.1,7.1-7.1,18.6,0,25.6c3.4,3.4,8,5.3,12.8,5.3h54.4v126.9c0,10,8.1,18.1,18.1,18.1
			s18.1-8.1,18.1-18.1v-145c0-10-8.1-18.1-18.1-18.1H118l83.1-83.1l83.1,83.1h-28.7c-10,0-18.1,8.1-18.1,18.1v199.4H183
			c-10,0-18.1,8.1-18.1,18.1c0,4.8,1.9,9.4,5.3,12.8l126.9,126.9c7.1,7.1,18.6,7.1,25.6,0l126.9-126.9c3.4-3.4,5.3-8,5.3-12.8
			c0-2.4-0.5-4.7-1.4-6.9c-2.8-6.8-9.4-11.2-16.7-11.2h-54.4V219.3c0-10-8.1-18.1-18.1-18.1c-10,0-18.1,8.1-18.1,18.1v145
			c0,10,8.1,18.1,18.1,18.1H393l-83.1,83.1l-83.1-83.1h28.7c10,0,18.1-8.1,18.1-18.1V164.9H328c10,0,18.1-8.1,18.1-18.1
			c0-4.8-1.9-9.4-5.3-12.8L213.9,7.1C206.9,0,195.4,0,188.3,7.1z"/>
	</g>
</g>
</svg>
