<svg xmlns="http://www.w3.org/2000/svg" viewBox="0 0 20.05 25.04"><defs></defs><title>bomb-03</title><g id="bomb-03" data-name="bomb-03"><path  d="M3,10.55A7.57,7.57,0,0,1,9.17,8.7s.84-1.79.88-1.82.22-.4,2.07.26l-.19.45s-1.06-.43-.69.1,3.61,1.77,2.14.63l.26-.41s1.57.86,1.25,1.49S14,11.2,14,11.2A8.41,8.41,0,0,1,16,15.14a9.94,9.94,0,0,1-.36,3.68l-1.42.43a9.78,9.78,0,0,0,0-4,9.5,9.5,0,0,0-2-3.56s1.09.36,1.42,0c0,0-.66.28-2.07-.47s-1.5-.81-1.5-.81L11,8.5s2.93,1.77,3.57,1c0,0-2.12.34-4.61-2.24a1.48,1.48,0,0,0,.44.75l-1,1.87a1,1,0,0,1-.5-.69.43.43,0,0,0,.1.54A7.33,7.33,0,0,0,3,10.55Z"/><path  d="M14,19.77l1.5-.38s-.79,1.8-1.5,2l-.86.23A5.85,5.85,0,0,0,14,19.77Z"/><path  d="M0,17.85a9.46,9.46,0,0,0,5.44,5.54c4.16,1.47,6.91.14,7.69-.36a8.25,8.25,0,0,1-5.94,2A7.9,7.9,0,0,1,.86,20.76,8.93,8.93,0,0,1,0,17.85Z"/><path  d="M14.7,4.3l.76-.37a.19.19,0,0,1,.29.05,2.49,2.49,0,0,1,.1,2.29,2.82,2.82,0,0,1-1.53,1.18c-.18.06-.78.13-1,.45s-.15.56-.48.43S12,8,12.06,7.75s.66.22.66.22a.09.09,0,0,0,.15,0c.06-.11-.31-.37-.31-.37s-.31-.16-.21-.34.39.16.39.16l.17.2s.06.07.12,0a.31.31,0,0,0-.14-.4c-.18-.12-.29-.25-.17-.37s.24,0,.37.18a1.06,1.06,0,0,1,.15.29s0,.1.1.06.19-.14,0-.43-.14-.46-.06-.5.23-.11.31.33.08.49.19.47.22-.19.1-.47-.1-.55,0-.56.2.09.23.47.07.46.14.43.24-.07.11-.55-.07-.55.06-.45a1.77,1.77,0,0,1,.26.59s0,.22.18,0-.13-.58-.22-.69,0-.19.12-.11a2,2,0,0,1,.4.44s.1.14.19-.05S15,5.66,15,5.66s-.19-.14,0-.13a1.91,1.91,0,0,1,.63.3s.09,0,.07-.14-.1-.25-.51-.37S15,5.11,15,5.11l.66.08s.16-.29-.23-.31l-.38,0s-.47-.06-.21-.16a2.87,2.87,0,0,1,.75-.1s0-.38-.43-.25-.43.2-.58.12S14.7,4.3,14.7,4.3Z"/><path  d="M3.78,21.17c.07.36.09.68-.35.59a1,1,0,0,1-.7-.83,10,10,0,0,1-.28-2.42,12.09,12.09,0,0,1,.2-2.18c.26-1.21,1-.6,1-.51a1.15,1.15,0,0,1,.06.75,15,15,0,0,0-.17,2.19,12.08,12.08,0,0,0,.22,2.41m1.12.1a15.88,15.88,0,0,1-.16-2.33,20,20,0,0,1,.12-2.11c.13-1.53-.27-2.27-1.35-2.46-.88-.07-1.46.5-1.76,1.75a10.36,10.36,0,0,0-.22,2.09,8.94,8.94,0,0,0,.3,2.36c.67,2.2,2.59,2.52,3,1.83a2,2,0,0,0,.09-1.13"/><path  d="M9.56,21.48c-.28,2-2.15,1.88-3.67,1.37,0-.26,0-.61.07-.87,2.25.78,2.27-.2,2.28-.57q0-.27,0-.55c0-.48-.11-1-1-1.06l-.49,0q0-.31,0-.64t0-.62l.56,0c.89,0,.91-.58.92-.93q0-.25,0-.49c0-.65,0-1.33-2.18-1C6,15.81,6,15.33,6,15a7,7,0,0,1,1.63-.12c.91.05,1.81.26,1.94,2.12q0,.17,0,.34c0,1.32-.47,1.65-.94,1.79v0c.26.08,1,.3.95,1.68q0,.34,0,.66"/></g></svg>
