<svg id="icons-spade" data-name="icons-spade" xmlns="http://www.w3.org/2000/svg" viewBox="0 0 143.97 154.02"><title>spade card</title><path d="M78.32,112.61C82,126,84.61,138.66,96.83,146c1.68,1,3,2.62,2.2,4.51-.71,1.61-1.88,3.42-4.22,3.39-.83,0-1.66.07-2.5.07q-20.24,0-40.49,0c-2.64,0-5.76.28-6.86-2.8-1.25-3.48,1.77-4.86,4.06-6.55,10.44-7.71,13.26-19.29,16.4-32.1-7,5.76-13.36,10.18-21.21,11.61C22.87,128,4.09,114.15.69,92.48S6.81,54.65,21.92,41c14.2-12.84,29-25,43.54-37.48,5.52-4.71,7.73-4.62,13-.06q20.26,17.43,40.58,34.8c11.79,10,21.37,21.69,24.12,37.33,3.78,21.45-6.28,42.84-27.08,48-11.36,2.83-21.72.72-31.21-6C83,116.29,81.21,114.82,78.32,112.61Z"/></svg>
