<svg id="icons-heart" data-name="icons-heart" xmlns="http://www.w3.org/2000/svg" viewBox="0 0 162.78 141.34"><title>heart card</title><path d="M0,46.24C.36,23.55,12,6.6,31.28,1.54,50-3.38,64.75,3.89,77.15,17.46c4.42,4.83,4.2,4.71,8.6.07C97,5.68,109.93-2.35,127.25.72c19.74,3.5,33,18.59,35.19,38.57,2,18.59-4.53,34-16.51,47.41-12.13,13.57-27.06,24.13-40.57,36.24-5.83,5.22-11.86,10.21-17.81,15.29-4.71,4-7.25,4.19-11.81.3-17.22-14.7-34.51-29.32-51.5-44.29C12.35,83.77,3.94,71,.83,55.16A85,85,0,0,1,0,46.24Z"/></svg>
