<svg id="coin-s" data-name="coin-s" xmlns="http://www.w3.org/2000/svg" viewBox="0 0 60 26.06"><title>coin-s</title><path d="M35,18.1a11.87,11.87,0,0,1-1,5.33,3.09,3.09,0,0,1-2.75,2,3,3,0,0,1-2.54-1.87,10.82,10.82,0,0,1-1-5.17h2.57a6.21,6.21,0,0,0,.35,2.09q.29.65.78.65t.89-.83a5.84,5.84,0,0,0,.33-2.13,6.22,6.22,0,0,0-.26-2,1.52,1.52,0,0,0-.65-.89l-1.16-.58a4.58,4.58,0,0,1-2-2.48,11.21,11.21,0,0,1-.75-4.28,12.61,12.61,0,0,1,1-5.24q1-2.1,2.68-2.11,1.33,0,2.34,1.84A10.12,10.12,0,0,1,34.74,7.1H32.3a4.9,4.9,0,0,0-.4-1.75q-.29-.55-.67-.55t-.83.78a6,6,0,0,0-.3,2.11,4.94,4.94,0,0,0,.28,1.8,1.77,1.77,0,0,0,.65.91l1.14.61a5,5,0,0,1,2.07,2.35A11.77,11.77,0,0,1,35,18.1Z"/><path d="M37.92,25V5.36H36.11A.57.57,0,0,1,35.58,5a2.8,2.8,0,0,1-.18-1.16V1h7.52v2.8A2.8,2.8,0,0,1,42.74,5a.57.57,0,0,1-.53.36H40.4V23.08a2.92,2.92,0,0,1-.29,1.4q-.29.54-.68.54Z"/><path d="M51.08,8.9q.06,2,.06,4.13t-.06,4.21a17,17,0,0,1-1,5.91q-.95,2.31-2.68,2.31-1.55,0-2.61-2.2a15,15,0,0,1-1.14-6.05q0-2,0-4.22t0-4.11a15.32,15.32,0,0,1,1.14-5.94Q45.78.62,47.35.62T50,3A16.5,16.5,0,0,1,51.08,8.9Zm-2.43,7.73q0-1.72.05-3.89t0-3.42a13.43,13.43,0,0,0-.38-3q-.34-1.33-1-1.33t-.93,1.19A12.2,12.2,0,0,0,46,9.32q0,1.41,0,3.84t0,3.59a12.6,12.6,0,0,0,.41,3.2q.36,1.2.94,1.2T48.27,20A15.22,15.22,0,0,0,48.64,16.63Z"/><path d="M52.51,25V1h4q1.9,0,2.68,2.51a16.58,16.58,0,0,1,.79,5,15.84,15.84,0,0,1-.81,5.14Q58.39,16,56.53,16H55v7a2.92,2.92,0,0,1-.29,1.4Q54.4,25,54,25Zm5-16.48a6.85,6.85,0,0,0-.32-2.35q-.32-.83-.76-.83H55V11.7h1.44q.45,0,.76-.82A6.84,6.84,0,0,0,57.51,8.54Z"/><path d="M23.94,7.72A12.44,12.44,0,1,0,7.64,23.91l.87-2.09a10.21,10.21,0,0,1-3.11-2H9l.93-3h4.44l.91,3h4.07L13.81,3H10.55L5.09,19.47a10.17,10.17,0,1,1,11.29,2.35L15.57,20A.29.29,0,0,0,15,20l-1.71,4.16a.29.29,0,0,0,.18.39L17.76,26a.29.29,0,0,0,.36-.4l-.81-1.77A12.45,12.45,0,0,0,23.94,7.72ZM12.06,9.8l.11-.45q.07-.29.11-.43a4.31,4.31,0,0,1,.09.43q0,.29.09.45l1.16,4.11H10.84Z"/></svg>
